<svg width="116" height="116" viewBox="0 0 116 116" fill="none" xmlns="http://www.w3.org/2000/svg">
<g filter="url(#filter0_d)">
<circle cx="58" cy="33" r="26" fill="#FC5E03"/>
</g>
<path d="M51.625 29.25H59.875V32.25H51.625V29.25Z" fill="white"/>
<path d="M56.5 40.5H64.75V43.5H56.5V40.5Z" fill="white"/>
<path d="M47.5 25.5H55.75V28.5H47.5V25.5Z" fill="white"/>
<path d="M51.625 36.75H59.875V39.75H51.625V36.75Z" fill="white"/>
<path d="M47.5 40.5H55.75V43.5H47.5V40.5Z" fill="white"/>
<path d="M60.625 36.75H68.875V39.75H60.625V36.75Z" fill="white"/>
<path d="M47.5 33H55.75V36H47.5V33Z" fill="white"/>
<path d="M47.125 36.75H50.875V39.75H47.125V36.75Z" fill="white"/>
<path d="M47.125 29.25H50.875V32.25H47.125V29.25Z" fill="white"/>
<path d="M56.5 33H64.75V36H56.5V33Z" fill="white"/>
<path d="M68.6047 22.2172C68.4525 22.1162 68.2697 22.0719 68.0881 22.092C67.9066 22.1122 67.7379 22.1955 67.6117 22.3275L66.049 23.8901C65.9566 23.983 65.8902 24.0987 65.8567 24.2254C65.8231 24.3521 65.8235 24.4854 65.8578 24.612L65.5027 24.9671C65.3624 25.1087 65.2837 25.2999 65.2837 25.4992C65.2837 25.6985 65.3624 25.8898 65.5027 26.0313L65.9077 26.4386L64.951 27.3937L64.2903 26.733C64.2465 26.6892 64.1925 26.6569 64.1332 26.6391C64.0739 26.6212 64.0112 26.6183 63.9505 26.6307C63.8898 26.643 63.8331 26.6702 63.7855 26.7097C63.7378 26.7493 63.7008 26.8001 63.6775 26.8575L62.3917 30.0262C62.3637 30.0948 62.3567 30.1702 62.3715 30.2428C62.3863 30.3154 62.4223 30.382 62.475 30.4342C62.5276 30.4863 62.5945 30.5217 62.6673 30.5359C62.74 30.55 62.8153 30.5423 62.8837 30.5137L66.0258 29.2012C66.0826 29.1775 66.1327 29.1401 66.1716 29.0924C66.2105 29.0447 66.2371 28.9881 66.249 28.9277C66.2609 28.8673 66.2578 28.8049 66.2398 28.746C66.2219 28.6871 66.1897 28.6335 66.1462 28.59L65.4813 27.924L66.4349 26.9703C66.5752 26.8288 66.6539 26.6375 66.6539 26.4382C66.6539 26.2389 66.5752 26.0477 66.4349 25.9061L66.0314 25.5L66.388 25.1433C66.5146 25.1776 66.6479 25.178 66.7746 25.1445C66.9013 25.1109 67.017 25.0445 67.1099 24.9521L68.701 23.361C68.7785 23.2838 68.8382 23.1906 68.8758 23.0879C68.9135 22.9853 68.9282 22.8756 68.9191 22.7667C68.9099 22.6577 68.877 22.5521 68.8227 22.4571C68.7684 22.3622 68.6939 22.2803 68.6047 22.2172Z" fill="white"/>
<defs>
<filter id="filter0_d" x="0" y="0" width="116" height="116" filterUnits="userSpaceOnUse" color-interpolation-filters="sRGB">
<feFlood flood-opacity="0" result="BackgroundImageFix"/>
<feColorMatrix in="SourceAlpha" type="matrix" values="0 0 0 0 0 0 0 0 0 0 0 0 0 0 0 0 0 0 127 0" result="hardAlpha"/>
<feOffset dy="25"/>
<feGaussianBlur stdDeviation="16"/>
<feComposite in2="hardAlpha" operator="out"/>
<feColorMatrix type="matrix" values="0 0 0 0 0 0 0 0 0 0 0 0 0 0 0 0 0 0 0.05 0"/>
<feBlend mode="normal" in2="BackgroundImageFix" result="effect1_dropShadow"/>
<feBlend mode="normal" in="SourceGraphic" in2="effect1_dropShadow" result="shape"/>
</filter>
</defs>
</svg>
