<svg width="116" height="116" viewBox="0 0 116 116" fill="none" xmlns="http://www.w3.org/2000/svg">
<g filter="url(#filter0_d)">
<circle cx="58" cy="33" r="26" fill="#FC5E03"/>
</g>
<path d="M51.625 29.25H59.875V32.25H51.625V29.25Z" fill="white"/>
<path d="M56.5 40.5H64.75V43.5H56.5V40.5Z" fill="white"/>
<path d="M47.5 25.5H55.75V28.5H47.5V25.5Z" fill="white"/>
<path d="M51.625 36.75H59.875V39.75H51.625V36.75Z" fill="white"/>
<path d="M47.5 40.5H55.75V43.5H47.5V40.5Z" fill="white"/>
<path d="M60.625 36.75H68.875V39.75H60.625V36.75Z" fill="white"/>
<path d="M47.5 33H55.75V36H47.5V33Z" fill="white"/>
<path d="M47.125 36.75H50.875V39.75H47.125V36.75Z" fill="white"/>
<path d="M47.125 29.25H50.875V32.25H47.125V29.25Z" fill="white"/>
<path d="M56.5 33H64.75V36H56.5V33Z" fill="white"/>
<path d="M68.6048 22.2172C68.4526 22.1162 68.2698 22.0719 68.0882 22.092C67.9067 22.1122 67.7381 22.1955 67.6118 22.3275L66.0491 23.8901C65.9567 23.983 65.8903 24.0987 65.8568 24.2254C65.8232 24.3521 65.8236 24.4854 65.8579 24.612L65.5028 24.9671C65.3625 25.1087 65.2838 25.2999 65.2838 25.4992C65.2838 25.6985 65.3625 25.8898 65.5028 26.0313L65.9078 26.4386L64.9511 27.3937L64.2904 26.733C64.2466 26.6892 64.1926 26.6569 64.1333 26.6391C64.0741 26.6212 64.0113 26.6183 63.9506 26.6307C63.8899 26.643 63.8332 26.6702 63.7856 26.7097C63.738 26.7493 63.7009 26.8001 63.6776 26.8575L62.3918 30.0262C62.3638 30.0948 62.3568 30.1702 62.3716 30.2428C62.3864 30.3154 62.4224 30.382 62.4751 30.4342C62.5277 30.4863 62.5946 30.5217 62.6674 30.5359C62.7401 30.55 62.8154 30.5423 62.8838 30.5137L66.0259 29.2012C66.0827 29.1775 66.1328 29.1401 66.1717 29.0924C66.2107 29.0447 66.2372 28.9881 66.2491 28.9277C66.261 28.8673 66.2579 28.8049 66.2399 28.746C66.222 28.6871 66.1898 28.6335 66.1463 28.59L65.4814 27.924L66.435 26.9703C66.5753 26.8288 66.654 26.6375 66.654 26.4382C66.654 26.2389 66.5753 26.0477 66.435 25.9061L66.0315 25.5L66.3881 25.1433C66.5147 25.1776 66.648 25.178 66.7747 25.1445C66.9014 25.1109 67.0171 25.0445 67.11 24.9521L68.7011 23.361C68.7786 23.2838 68.8383 23.1906 68.8759 23.0879C68.9136 22.9853 68.9283 22.8756 68.9192 22.7667C68.91 22.6577 68.8771 22.5521 68.8228 22.4571C68.7685 22.3622 68.6941 22.2803 68.6048 22.2172Z" fill="white"/>
<defs>
<filter id="filter0_d" x="0" y="0" width="116" height="116" filterUnits="userSpaceOnUse" color-interpolation-filters="sRGB">
<feFlood flood-opacity="0" result="BackgroundImageFix"/>
<feColorMatrix in="SourceAlpha" type="matrix" values="0 0 0 0 0 0 0 0 0 0 0 0 0 0 0 0 0 0 127 0" result="hardAlpha"/>
<feOffset dy="25"/>
<feGaussianBlur stdDeviation="16"/>
<feComposite in2="hardAlpha" operator="out"/>
<feColorMatrix type="matrix" values="0 0 0 0 0 0 0 0 0 0 0 0 0 0 0 0 0 0 0.05 0"/>
<feBlend mode="normal" in2="BackgroundImageFix" result="effect1_dropShadow"/>
<feBlend mode="normal" in="SourceGraphic" in2="effect1_dropShadow" result="shape"/>
</filter>
</defs>
</svg>
