<svg width="116" height="116" viewBox="0 0 116 116" fill="none" xmlns="http://www.w3.org/2000/svg">
<g filter="url(#filter0_d)">
<circle cx="58" cy="33" r="26" fill="#FC5E03"/>
</g>
<path d="M48.9747 27.8264L46.5198 28.928C46.204 29.0701 46 29.385 46 29.7314C46 30.0773 46.204 30.3928 46.5198 30.5349L48.3447 31.3538L48.3597 31.3609L52.5508 29.4793L48.9747 27.8264Z" fill="white"/>
<path d="M54.2425 30.2611L50.0763 32.131L52.2704 33.1163L56.3453 31.2328L54.2425 30.2611Z" fill="white"/>
<path d="M58.0214 32.0076L53.9711 33.8795L57.6395 35.5261C57.7543 35.5776 57.8771 35.6034 58.0004 35.6034C58.1232 35.6034 58.2459 35.5776 58.3604 35.5261L62.0503 33.8696L58.0214 32.0076Z" fill="white"/>
<path d="M56.303 27.7945L54.2513 28.7157L50.6752 27.0628L52.6764 26.1647L56.303 27.7945Z" fill="white"/>
<path d="M60.0971 29.4988L58.022 30.4579L55.943 29.4976L58.0187 28.5652H58.019L60.0971 29.4988Z" fill="white"/>
<path d="M61.7967 30.2629L59.6978 31.2328L63.751 33.106L65.9391 32.1238L61.7967 30.2629Z" fill="white"/>
<path d="M61.6284 25.4035L58.0196 27.024L54.393 25.394L57.64 23.9367C57.8693 23.8336 58.1317 23.8336 58.3609 23.9367L61.6284 25.4035Z" fill="white"/>
<path d="M65.3471 27.0728L61.7883 28.7176L59.7353 27.7951L63.3456 26.1741L65.3471 27.0728Z" fill="white"/>
<path d="M69.9998 29.7313C69.9998 30.0772 69.796 30.3927 69.4805 30.5342L67.6552 31.3536H67.6548L63.488 29.481L67.0472 27.8362L69.48 28.9279C69.796 29.0699 69.9998 29.3849 69.9998 29.7313Z" fill="white"/>
<path d="M69.48 32.1731L69.2262 32.0592L58.3803 36.9276C58.2661 36.9791 58.1432 37.0049 58.0201 37.0049C57.8973 37.0049 57.7742 36.9791 57.6596 36.9276L46.7939 32.05L46.5198 32.1731C46.2043 32.3152 46 32.6301 46 32.9766C46 33.3224 46.204 33.6379 46.5198 33.7795L57.6398 38.7713C57.7543 38.8228 57.8771 38.8486 57.9998 38.8486C58.1227 38.8486 58.2459 38.8228 58.3604 38.7713L69.4803 33.7795C69.7958 33.6379 69.9998 33.3224 69.9998 32.9766C69.9998 32.6301 69.796 32.3152 69.48 32.1731Z" fill="white"/>
<path d="M69.4802 35.4653L69.1976 35.3384L58.3803 40.1942C58.2661 40.2457 58.1432 40.2715 58.0201 40.2715C57.8973 40.2715 57.7742 40.2457 57.6596 40.1942L46.8225 35.3295L46.5198 35.4655C46.2042 35.6072 46.0002 35.9225 46.0002 36.2686C46.0002 36.6149 46.2042 36.93 46.52 37.0719L57.6395 42.0634C57.7541 42.115 57.8771 42.1406 58.0002 42.1406C58.123 42.1406 58.2459 42.1148 58.3604 42.0635L69.4803 37.0717C69.796 36.93 70 36.6147 70 36.2686C70 35.9225 69.796 35.6072 69.4802 35.4653Z" fill="white"/>
<defs>
<filter id="filter0_d" x="0" y="0" width="116" height="116" filterUnits="userSpaceOnUse" color-interpolation-filters="sRGB">
<feFlood flood-opacity="0" result="BackgroundImageFix"/>
<feColorMatrix in="SourceAlpha" type="matrix" values="0 0 0 0 0 0 0 0 0 0 0 0 0 0 0 0 0 0 127 0" result="hardAlpha"/>
<feOffset dy="25"/>
<feGaussianBlur stdDeviation="16"/>
<feComposite in2="hardAlpha" operator="out"/>
<feColorMatrix type="matrix" values="0 0 0 0 0 0 0 0 0 0 0 0 0 0 0 0 0 0 0.05 0"/>
<feBlend mode="normal" in2="BackgroundImageFix" result="effect1_dropShadow"/>
<feBlend mode="normal" in="SourceGraphic" in2="effect1_dropShadow" result="shape"/>
</filter>
</defs>
</svg>
