<svg width="116" height="116" viewBox="0 0 116 116" fill="none" xmlns="http://www.w3.org/2000/svg">
<g filter="url(#filter0_d)">
<circle cx="58" cy="33" r="26" fill="#FC5E03"/>
</g>
<path d="M48.9747 27.8264L46.5198 28.9279C46.204 29.07 46 29.3849 46 29.7314C46 30.0773 46.204 30.3928 46.5198 30.5349L48.3447 31.3537L48.3597 31.3608L52.5508 29.4792L48.9747 27.8264Z" fill="white"/>
<path d="M54.2424 30.2611L50.0762 32.131L52.2703 33.1163L56.3452 31.2328L54.2424 30.2611Z" fill="white"/>
<path d="M58.0215 32.0076L53.9712 33.8795L57.6395 35.5261C57.7543 35.5776 57.8772 35.6034 58.0004 35.6034C58.1233 35.6034 58.246 35.5776 58.3604 35.5261L62.0504 33.8696L58.0215 32.0076Z" fill="white"/>
<path d="M56.303 27.7945L54.2513 28.7157L50.6753 27.0628L52.6765 26.1647L56.303 27.7945Z" fill="white"/>
<path d="M60.097 29.4988L58.0219 30.4579L55.9429 29.4976L58.0186 28.5652H58.0189L60.097 29.4988Z" fill="white"/>
<path d="M61.7967 30.2629L59.6978 31.2328L63.751 33.106L65.9391 32.1238L61.7967 30.2629Z" fill="white"/>
<path d="M61.6285 25.4035L58.0197 27.024L54.3931 25.394L57.6401 23.9366C57.8693 23.8335 58.1317 23.8335 58.361 23.9366L61.6285 25.4035Z" fill="white"/>
<path d="M65.3472 27.0727L61.7883 28.7175L59.7354 27.795L63.3456 26.174L65.3472 27.0727Z" fill="white"/>
<path d="M69.9998 29.7314C69.9998 30.0773 69.796 30.3928 69.4805 30.5343L67.6552 31.3537H67.6548L63.488 29.4811L67.0472 27.8362L69.48 28.9279C69.796 29.07 69.9998 29.3849 69.9998 29.7314Z" fill="white"/>
<path d="M69.48 32.1731L69.2262 32.0592L58.3803 36.9276C58.2661 36.9791 58.1432 37.0049 58.0201 37.0049C57.8973 37.0049 57.7742 36.9791 57.6596 36.9276L46.7939 32.05L46.5198 32.1731C46.2043 32.3152 46 32.6301 46 32.9766C46 33.3224 46.204 33.6379 46.5198 33.7795L57.6398 38.7713C57.7543 38.8228 57.8771 38.8486 57.9998 38.8486C58.1227 38.8486 58.2459 38.8228 58.3604 38.7713L69.4803 33.7795C69.7958 33.6379 69.9998 33.3224 69.9998 32.9766C69.9998 32.6301 69.796 32.3152 69.48 32.1731Z" fill="white"/>
<path d="M69.4802 35.4653L69.1977 35.3384L58.3804 40.1942C58.2661 40.2457 58.1432 40.2715 58.0202 40.2715C57.8973 40.2715 57.7743 40.2457 57.6597 40.1942L46.8226 35.3295L46.5199 35.4655C46.2042 35.6072 46.0002 35.9225 46.0002 36.2686C46.0002 36.6149 46.2042 36.93 46.5201 37.0719L57.6395 42.0634C57.7542 42.115 57.8772 42.1406 58.0002 42.1406C58.1231 42.1406 58.246 42.1148 58.3604 42.0635L69.4804 37.0717C69.7961 36.93 70.0001 36.6147 70.0001 36.2686C70.0001 35.9225 69.7961 35.6072 69.4802 35.4653Z" fill="white"/>
<defs>
<filter id="filter0_d" x="0" y="0" width="116" height="116" filterUnits="userSpaceOnUse" color-interpolation-filters="sRGB">
<feFlood flood-opacity="0" result="BackgroundImageFix"/>
<feColorMatrix in="SourceAlpha" type="matrix" values="0 0 0 0 0 0 0 0 0 0 0 0 0 0 0 0 0 0 127 0" result="hardAlpha"/>
<feOffset dy="25"/>
<feGaussianBlur stdDeviation="16"/>
<feComposite in2="hardAlpha" operator="out"/>
<feColorMatrix type="matrix" values="0 0 0 0 0 0 0 0 0 0 0 0 0 0 0 0 0 0 0.05 0"/>
<feBlend mode="normal" in2="BackgroundImageFix" result="effect1_dropShadow"/>
<feBlend mode="normal" in="SourceGraphic" in2="effect1_dropShadow" result="shape"/>
</filter>
</defs>
</svg>
